<svg xmlns="http://www.w3.org/2000/svg" width="1440" height="900" viewBox="0 0 1440 900">
  <defs>
    <linearGradient id="bgGrad" x1="0" y1="0" x2="1" y2="1">
      <stop offset="0" stop-color="#020617"/>
      <stop offset="0.35" stop-color="#061a33"/>
      <stop offset="1" stop-color="#040b17"/>
    </linearGradient>

    <radialGradient id="glowCyan" cx="35%" cy="30%" r="65%">
      <stop offset="0" stop-color="#22d3ee" stop-opacity="0.35"/>
      <stop offset="0.45" stop-color="#38bdf8" stop-opacity="0.16"/>
      <stop offset="1" stop-color="#0b1222" stop-opacity="0"/>
    </radialGradient>

    <radialGradient id="glowIndigo" cx="80%" cy="60%" r="65%">
      <stop offset="0" stop-color="#6366f1" stop-opacity="0.22"/>
      <stop offset="0.55" stop-color="#22d3ee" stop-opacity="0.08"/>
      <stop offset="1" stop-color="#0b1222" stop-opacity="0"/>
    </radialGradient>

    <filter id="softBlur" x="-50%" y="-50%" width="200%" height="200%">
      <feGaussianBlur stdDeviation="8" result="b"/>
      <feColorMatrix in="b" type="matrix"
        values="1 0 0 0 0
                0 1 0 0 0
                0 0 1 0 0
                0 0 0 0.65 0"/>
      <feMerge>
        <feMergeNode/>
        <feMergeNode in="SourceGraphic"/>
      </feMerge>
    </filter>

    <linearGradient id="ringStroke" x1="0" y1="0" x2="1" y2="1">
      <stop offset="0" stop-color="#22d3ee" stop-opacity="0.55"/>
      <stop offset="0.55" stop-color="#818cf8" stop-opacity="0.28"/>
      <stop offset="1" stop-color="#38bdf8" stop-opacity="0.14"/>
    </linearGradient>

    <linearGradient id="nodeStroke" x1="0" y1="0" x2="1" y2="0">
      <stop offset="0" stop-color="#22d3ee" stop-opacity="0.35"/>
      <stop offset="1" stop-color="#38bdf8" stop-opacity="0.12"/>
    </linearGradient>

    <filter id="nodeGlow" x="-80%" y="-80%" width="260%" height="260%">
      <feGaussianBlur stdDeviation="3" result="b"/>
      <feMerge>
        <feMergeNode in="b"/>
        <feMergeNode in="SourceGraphic"/>
      </feMerge>
    </filter>

    <path id="orbitPathA" d="M 960 260 C 1050 310 1120 410 1120 510 C 1120 640 1010 720 870 720 C 730 720 600 630 600 520 C 600 400 700 305 810 265 C 860 245 910 240 960 260 Z"/>
    <path id="orbitPathB" d="M 1030 340 C 1090 395 1115 470 1110 545 C 1100 675 990 760 855 770 C 730 780 610 710 565 600 C 535 530 550 440 605 380 C 675 300 775 275 855 290 C 935 305 995 315 1030 340 Z"/>
  </defs>

  <!-- Background -->
  <rect width="1440" height="900" fill="url(#bgGrad)"/>
  <rect width="1440" height="900" fill="url(#glowCyan)" opacity="0.85" filter="url(#softBlur)"/>
  <rect width="1440" height="900" fill="url(#glowIndigo)" opacity="0.9" filter="url(#softBlur)"/>

  <!-- Subtle data grid arcs -->
  <g opacity="0.18" fill="none" stroke="url(#nodeStroke)" stroke-width="1">
    <path d="M 130 680 C 360 560 520 540 740 580 C 980 625 1120 705 1310 660"/>
    <path d="M 160 760 C 380 645 560 615 760 650 C 990 690 1120 790 1290 740"/>
    <path d="M 180 610 C 410 520 590 495 760 520 C 1010 560 1140 640 1270 610"/>
  </g>

  <!-- Atom rings -->
  <g id="rings" opacity="0.95">
    <circle cx="860" cy="520" r="235" fill="none" stroke="url(#ringStroke)" stroke-width="2.4" stroke-dasharray="10 14">
      <animate attributeName="stroke-dashoffset" from="0" to="-240" dur="12s" repeatCount="indefinite"/>
    </circle>
    <circle cx="860" cy="520" r="165" fill="none" stroke="url(#ringStroke)" stroke-width="1.2" stroke-dasharray="4 10" opacity="0.75">
      <animate attributeName="stroke-dashoffset" from="0" to="220" dur="9s" repeatCount="indefinite"/>
    </circle>
  </g>

  <!-- Orbit electrons -->
  <g filter="url(#nodeGlow)">
    <circle r="5.4" fill="#22d3ee">
      <animateMotion dur="6.5s" repeatCount="indefinite" rotate="auto">
        <mpath href="#orbitPathA"/>
      </animateMotion>
    </circle>
    <circle r="3.9" fill="#38bdf8" opacity="0.9">
      <animateMotion dur="8.8s" repeatCount="indefinite" rotate="auto" begin="-3s">
        <mpath href="#orbitPathB"/>
      </animateMotion>
    </circle>
    <circle r="2.8" fill="#818cf8" opacity="0.7">
      <animateMotion dur="5.6s" repeatCount="indefinite" rotate="auto" begin="-1.3s">
        <mpath href="#orbitPathB"/>
      </animateMotion>
    </circle>
  </g>

  <!-- Data nodes (pulsing micro particles) -->
  <g filter="url(#nodeGlow)" opacity="0.85">
    <g>
      <circle cx="460" cy="420" r="2.4" fill="#22d3ee">
        <animate attributeName="r" values="1.6;3.2;1.6" dur="2.8s" repeatCount="indefinite"/>
        <animate attributeName="opacity" values="0.25;0.7;0.25" dur="2.8s" repeatCount="indefinite"/>
      </circle>
      <circle cx="545" cy="520" r="1.8" fill="#38bdf8">
        <animate attributeName="r" values="1.2;2.8;1.2" dur="3.2s" repeatCount="indefinite" begin="-1s"/>
        <animate attributeName="opacity" values="0.2;0.6;0.2" dur="3.2s" repeatCount="indefinite" begin="-1s"/>
      </circle>
      <circle cx="560" cy="640" r="1.4" fill="#818cf8">
        <animate attributeName="r" values="1.0;2.2;1.0" dur="3.6s" repeatCount="indefinite" begin="-2s"/>
        <animate attributeName="opacity" values="0.15;0.55;0.15" dur="3.6s" repeatCount="indefinite" begin="-2s"/>
      </circle>
    </g>
    <g opacity="0.9">
      <circle cx="680" cy="370" r="2.0" fill="#22d3ee">
        <animate attributeName="opacity" values="0.2;0.75;0.2" dur="3.1s" repeatCount="indefinite"/>
      </circle>
      <circle cx="1035" cy="380" r="2.1" fill="#38bdf8">
        <animate attributeName="opacity" values="0.18;0.65;0.18" dur="2.4s" repeatCount="indefinite" begin="-0.7s"/>
      </circle>
      <circle cx="1120" cy="530" r="1.6" fill="#818cf8">
        <animate attributeName="opacity" values="0.15;0.6;0.15" dur="2.9s" repeatCount="indefinite" begin="-1.2s"/>
      </circle>
      <circle cx="940" cy="680" r="1.8" fill="#22d3ee">
        <animate attributeName="opacity" values="0.18;0.7;0.18" dur="3.4s" repeatCount="indefinite" begin="-0.2s"/>
      </circle>
    </g>
  </g>

  <!-- Soft scan lines -->
  <g opacity="0.35">
    <rect x="0" y="0" width="1440" height="900" fill="none" stroke="rgba(56,189,248,0.10)" stroke-width="1">
      <animate attributeName="opacity" values="0.22;0.35;0.22" dur="5.8s" repeatCount="indefinite"/>
    </rect>
    <g opacity="0.7">
      <path d="M 0 220 L 1440 140" stroke="rgba(34,211,238,0.10)" stroke-width="1" />
      <path d="M 0 320 L 1440 240" stroke="rgba(56,189,248,0.08)" stroke-width="1" />
      <path d="M 0 420 L 1440 350" stroke="rgba(129,140,248,0.06)" stroke-width="1" />
      <path d="M 0 520 L 1440 460" stroke="rgba(34,211,238,0.08)" stroke-width="1" />
      <path d="M 0 620 L 1440 590" stroke="rgba(56,189,248,0.07)" stroke-width="1" />
      <animate attributeName="opacity" values="0.28;0.45;0.28" dur="7.4s" repeatCount="indefinite"/>
    </g>
  </g>

  <!-- Global breathing of the whole scene (kept subtle) -->
  <g>
    <animateTransform attributeName="transform" type="translate" values="0 0; 0 -4; 0 0" dur="8s" repeatCount="indefinite"/>
  </g>
</svg>

